<svg xmlns="http://www.w3.org/2000/svg" width="1em" height="1em" viewBox="0 0 24 24">
	<path d="M0 0h24v24H0z" fill="none" />
	<path fill="currentColor" d="M16.3 0c.214 1.46-.378 2.89-1.16 3.9c-.835 1.08-2.27 1.92-3.66 1.88c-.254-1.4.398-2.83 1.19-3.8C13.539.91 15.03.1 16.3.01zm.5 6c1.59 0 3.27.874 4.47 2.38c-3.93 2.17-3.29 7.84.68 9.36c-.413.996-.919 1.95-1.51 2.85c-.982 1.51-2.37 3.39-4.08 3.41c-.706.007-1.17-.207-1.67-.438c-.579-.267-1.21-.557-2.32-.551c-1.1.005-1.74.292-2.33.556c-.512.23-.984.443-1.69.436c-1.72-.015-3.03-1.71-4.01-3.22c-2.75-4.22-3.03-9.18-1.34-11.8c1.2-1.87 3.1-2.97 4.89-2.97c.952 0 1.72.276 2.45.539c.664.239 1.3.467 2.01.467c.662 0 1.21-.208 1.8-.435c.714-.273 1.5-.573 2.65-.573z" />
</svg>
